<svg xmlns="http://www.w3.org/2000/svg" width="45" height="41" viewBox="0 0 45 41">
    <g fill="#2DBAEC">
        <path d="M23.09 18.02c1.125 0 2.037-.95 2.037-2.119 0-1.17-.912-2.118-2.036-2.118-1.125 0-2.036.948-2.036 2.118.002 1.169.912 2.116 2.036 2.118zm0-3.304c.63 0 1.14.53 1.14 1.185s-.51 1.185-1.14 1.185c-.628 0-1.138-.53-1.138-1.185 0-.654.51-1.185 1.139-1.185zM30.06 21.715c.743 0 1.346-.627 1.346-1.4 0-.773-.603-1.4-1.346-1.4H15.71c-.743 0-1.346.627-1.346 1.4 0 .773.603 1.4 1.346 1.4h4.036v3.732l-.099 7.466c-.035.41.091.817.35 1.129.274.305.661.475 1.063.466h.031c.446.029.883-.133 1.211-.448.24-.256.369-.603.355-.96l.228-5.283.328 5.287c.043.797.7 1.407 1.466 1.362.448.01.88-.176 1.189-.513.253-.285.376-.669.336-1.054l-.18-7.424v-3.76h4.037zm-4.485-.934c-.247 0-.448.21-.448.467v4.237l.197 7.465c.018.13-.022.262-.107.36-.142.15-.341.226-.543.21-.449 0-.56-.318-.57-.495l-.448-6.939c-.014-.246-.211-.439-.449-.438h-.7c-.247 0-.448.209-.448.466l-.3 6.962c0 .224-.068.294-.09.317-.176.12-.388.17-.597.145-.152.013-.302-.04-.417-.145-.096-.133-.136-.302-.112-.466l.099-7.466v-4.199c0-.258-.2-.467-.449-.467H15.71c-.248 0-.449-.208-.449-.466s.2-.467.449-.467H30.06c.248 0 .449.21.449.467 0 .258-.201.466-.449.466l-4.485-.014zM22.476 2.487c.483 0 .918-.303 1.102-.766.185-.464.083-.998-.258-1.353s-.854-.461-1.3-.269c-.446.192-.737.645-.737 1.147 0 .685.534 1.24 1.193 1.24zm0-1.554c.164 0 .296.138.296.308 0 .17-.132.308-.296.308-.163 0-.296-.138-.296-.308 0-.17.133-.308.296-.308zM22.925 3.182c0-.258-.201-.467-.449-.467-.247 0-.448.21-.448.467v.933c0 .258.2.467.448.467s.449-.21.449-.467v-.933zM22.925 5.949c0-.258-.201-.467-.449-.467-.247 0-.448.21-.448.467v1.834c0 .257.2.466.448.466s.449-.209.449-.466V5.949zM22.476 9.15c-.247 0-.448.209-.448.466v.933c0 .258.2.467.448.467s.449-.209.449-.467v-.933c0-.257-.201-.466-.449-.466zM43.667 21.93c-.484 0-.92.303-1.103.769-.184.465-.08 1 .265 1.354.344.354.859.456 1.304.26.445-.197.733-.653.727-1.157-.007-.68-.54-1.227-1.193-1.227zm0 1.553c-.12 0-.227-.075-.273-.19-.046-.115-.02-.248.064-.336.085-.088.212-.114.322-.066.111.047.183.16.183.284-.01.163-.14.29-.296.29v.018zM41.81 22.69h-.896c-.248 0-.449.209-.449.466 0 .258.2.467.449.467h.896c.248 0 .449-.209.449-.467 0-.257-.2-.466-.449-.466zM36.958 23.156c0 .258.2.467.448.467h1.754c.248 0 .448-.209.448-.467 0-.257-.2-.466-.448-.466h-1.754c-.247 0-.448.209-.448.466zM34.751 22.69c-.247 0-.448.209-.448.466 0 .258.2.467.448.467h.897c.248 0 .449-.209.449-.467 0-.257-.201-.466-.449-.466h-.897zM2.393 23.156c0-.685-.534-1.24-1.193-1.24s-1.193.555-1.193 1.24c0 .686.534 1.241 1.193 1.241.316 0 .62-.13.844-.363.223-.233.35-.548.35-.878zm-1.193.308c-.12 0-.228-.075-.273-.19-.046-.115-.02-.247.064-.335.084-.088.212-.115.322-.067.111.048.183.16.183.284 0 .169-.13.306-.291.308H1.2zM3.958 22.69h-.897c-.247 0-.448.209-.448.466 0 .258.2.467.448.467h.897c.248 0 .449-.209.449-.467 0-.257-.201-.466-.449-.466zM7.914 23.156c0-.257-.2-.466-.449-.466H5.712c-.248 0-.449.209-.449.466 0 .258.201.467.449.467h1.753c.248 0 .449-.209.449-.467zM9.223 23.623h.897c.248 0 .449-.209.449-.467 0-.257-.2-.466-.449-.466h-.897c-.247 0-.448.209-.448.466 0 .258.2.467.448.467zM37.518 8.902c.317.001.62-.13.844-.364.463-.485.463-1.268 0-1.754-.223-.234-.527-.365-.844-.364-.316-.001-.62.13-.843.364-.463.486-.463 1.269 0 1.754.223.234.527.365.843.364zm-.206-1.46c.055-.057.13-.09.206-.09.078 0 .152.033.207.09.115.122.115.317 0 .439-.055.058-.13.09-.209.09-.078 0-.153-.032-.208-.09-.114-.123-.112-.319.004-.44zM35.577 10.157c.119.001.233-.048.318-.135l.632-.662c.175-.183.174-.479-.002-.66-.176-.182-.46-.181-.635.002l-.632.662c-.13.134-.168.335-.098.51.07.176.234.29.417.288v-.005zM33.092 12.752c.12 0 .234-.048.318-.136l1.243-1.297c.174-.183.173-.478-.003-.66-.175-.182-.46-.18-.634.002l-1.243 1.297c-.129.134-.168.336-.098.51.07.176.235.29.417.288v-.004zM30.899 14.571c.175.181.457.181.632 0l.633-.662c.174-.183.173-.479-.003-.66-.176-.182-.46-.181-.634.002l-.633.662c-.172.184-.17.478.005.658zM8.192 37.793c-.223-.234-.527-.365-.843-.364-.317 0-.62.13-.843.364-.463.486-.463 1.269 0 1.754.222.234.526.366.843.364.316.001.62-.13.843-.364.463-.485.463-1.268 0-1.754zm-.637 1.096c-.055.059-.13.092-.208.092-.079 0-.154-.033-.209-.092-.115-.121-.115-.317 0-.438.055-.059.13-.092.209-.092.078 0 .153.033.208.092.105.118.107.3.005.42l-.005.018zM9.466 36.29l-.633.663c-.113.118-.156.29-.114.451.042.161.163.287.318.33.155.042.32-.005.433-.123l.633-.663c.112-.118.156-.29.114-.45-.042-.162-.163-.287-.318-.33-.155-.042-.32.004-.433.123zM11.95 33.696l-1.242 1.297c-.113.119-.157.29-.115.452.042.16.164.286.319.329.155.042.32-.004.433-.123l1.224-1.297c.113-.118.157-.29.115-.451-.042-.161-.164-.286-.319-.329-.155-.043-.32.004-.433.122h.018zM13.825 31.727l-.632.663c-.175.183-.174.478.002.66.176.182.46.18.634-.002l.633-.663c.174-.183.173-.478-.002-.66-.176-.182-.46-.18-.635.002zM37.523 37.429c-.317 0-.62.13-.843.364-.463.486-.463 1.269 0 1.754.223.234.526.366.843.364.316.001.62-.13.843-.364.463-.485.463-1.268 0-1.754-.223-.234-.527-.365-.843-.364zm.206 1.46c-.055.059-.13.092-.208.092-.079 0-.154-.033-.209-.092-.115-.121-.115-.317 0-.438.055-.059.13-.092.209-.092.078 0 .153.033.208.092.115.121.115.317 0 .438zM36.527 36.967l-.637-.658c-.112-.118-.278-.165-.433-.122-.155.042-.276.168-.318.329-.042.16.002.333.115.451l.636.663c.113.118.279.165.434.122.155-.043.276-.168.318-.329.042-.16-.002-.333-.115-.451v-.005zM33.41 33.715c-.174-.183-.458-.184-.634-.002-.176.181-.177.477-.003.66l1.243 1.297c.116.118.284.163.44.118.157-.046.279-.175.319-.339.04-.163-.006-.337-.122-.456l-1.243-1.278zM31.536 31.76c-.113-.118-.278-.165-.433-.122-.155.042-.277.168-.319.329-.042.16.002.333.115.451l.632.662c.113.119.278.166.433.123.155-.043.277-.168.319-.329.042-.161-.002-.333-.115-.451l-.632-.663zM7.349 8.921c.316 0 .62-.13.843-.364.463-.486.463-1.269 0-1.754-.223-.234-.527-.365-.843-.364-.317-.001-.62.13-.843.364-.463.485-.463 1.268 0 1.754.222.234.526.365.843.364zm-.206-1.456c.054-.058.13-.091.208-.091.079 0 .154.033.209.091.115.122.115.317 0 .439-.055.058-.13.091-.209.091-.078 0-.154-.033-.208-.091-.116-.122-.116-.317 0-.439zM8.344 9.378l.637.663c.113.118.278.165.433.122.155-.042.277-.168.319-.329.042-.16-.002-.333-.115-.451l-.637-.663c-.113-.118-.278-.165-.433-.122-.155.043-.276.168-.318.329-.042.16.002.333.114.451zM11.461 12.635c.113.118.278.165.433.122.155-.042.277-.168.319-.329.042-.16-.002-.333-.115-.45l-1.242-1.298c-.113-.118-.278-.165-.433-.122-.155.042-.276.168-.318.329-.043.16.001.333.114.45l1.242 1.298zM13.336 14.59c.113.118.278.165.433.122.155-.042.277-.168.319-.329.042-.16-.002-.333-.115-.45l-.632-.663c-.113-.119-.278-.165-.433-.123-.155.043-.277.168-.319.329-.042.161.002.333.115.451l.632.663zM14.13 3.859c.52.238 1.13.062 1.457-.423.327-.484.28-1.14-.112-1.57-.392-.428-1.02-.508-1.502-.192-.48.316-.68.942-.475 1.494.113.309.34.558.632.69zm.372-1.423c.036-.007.072-.007.108 0 .121 0 .23.078.273.196.058.16-.017.338-.17.4-.072.032-.153.032-.224 0-.073-.033-.13-.095-.157-.172-.035-.08-.036-.172-.003-.252.033-.081.098-.144.178-.172h-.005zM15.121 4.097c-.23.093-.344.362-.256.601l.323.873c.058.156.191.268.35.294.158.026.318-.038.42-.168.1-.13.127-.306.069-.462l-.318-.872c-.043-.118-.13-.212-.24-.262-.111-.05-.236-.052-.348-.004zM15.82 7.279l.638 1.712c.057.156.19.268.35.294.158.026.318-.038.418-.168.101-.13.128-.306.07-.462l-.637-1.712c-.057-.156-.19-.268-.35-.294-.158-.026-.318.038-.418.168-.101.13-.128.306-.07.462zM17.09 10.699l.323.872c.058.156.19.268.35.294.158.026.318-.038.419-.168.1-.13.127-.306.07-.462l-.323-.872c-.058-.156-.191-.268-.35-.294-.158-.026-.318.038-.42.168-.1.13-.127.306-.07.462zM41.142 15.691c.174.468.602.781 1.085.793.482.012.924-.28 1.12-.74.194-.458.104-.994-.23-1.358-.332-.363-.843-.481-1.293-.3-.297.117-.536.352-.664.654-.128.302-.134.644-.018.951zm1.005-.76c.152-.06.323.019.381.177.058.16-.018.338-.17.401-.072.031-.153.031-.225 0-.072-.033-.129-.095-.157-.173-.029-.077-.027-.163.005-.24.032-.075.091-.135.166-.165zM39.685 16.746c.055 0 .11-.012.161-.033l.834-.34c.197-.11.287-.354.21-.572-.077-.219-.296-.345-.515-.297l-.852.36c-.2.082-.315.3-.276.52.04.219.223.379.438.38v-.018zM36.41 18.07c.056 0 .11-.01.162-.032l1.637-.663c.212-.104.31-.362.226-.59-.085-.227-.324-.348-.549-.277l-1.637.657c-.2.083-.315.3-.276.52.04.22.223.38.438.381v.005zM33.774 18.169c-.161.05-.281.19-.311.363-.03.172.035.347.169.454.133.106.313.126.465.05l.834-.335c.212-.105.31-.363.225-.59-.084-.228-.324-.35-.548-.278l-.834.336zM3.73 30.622c-.175-.469-.603-.782-1.085-.793-.483-.012-.924.28-1.12.739-.194.459-.104.995.229 1.358.333.363.844.482 1.294.3.296-.116.535-.352.664-.653.128-.302.134-.645.018-.951zm-1.005.737c-.072.03-.153.03-.224 0-.073-.034-.13-.096-.157-.173-.053-.157.022-.329.17-.392.072-.03.153-.03.224 0 .073.034.13.096.157.173.053.157-.022.33-.17.392zM5.026 29.6l-.835.336c-.179.03-.323.168-.365.352-.042.183.026.375.173.486.146.111.343.119.497.02l.835-.336c.212-.105.31-.362.225-.59-.084-.227-.324-.349-.548-.278l.018.01zM8.878 28.54c-.09-.238-.348-.357-.578-.265l-1.637.653c-.161.05-.281.191-.311.363-.03.172.035.348.169.454.133.106.313.126.465.05l1.637-.662c.225-.093.338-.355.255-.592zM11.354 27.528c-.093-.235-.35-.35-.579-.256l-.834.336c-.178.033-.32.174-.359.358-.039.184.032.374.18.482.148.109.344.114.497.013l.835-.336c.229-.091.345-.357.26-.597zM31.639 1.974c-.29-.136-.62-.146-.917-.027-.297.12-.535.358-.662.661-.196.46-.106.996.227 1.36.333.363.843.482 1.294.301.295-.119.532-.355.659-.658.265-.625-.003-1.355-.601-1.637zm-.233 1.26c-.032.075-.092.134-.166.163-.072.03-.153.03-.225 0-.073-.033-.13-.095-.159-.172-.028-.077-.026-.164.007-.239.032-.089.101-.158.188-.187.072-.03.153-.03.225 0 .074.038.13.106.154.188.025.082.016.171-.024.246zM29.867 6.164c.11.05.233.053.344.008.11-.044.2-.133.248-.246l.36-.854c.073-.155.06-.339-.036-.48-.096-.14-.259-.214-.424-.192-.164.022-.303.137-.362.298l-.358.854c-.098.235.004.507.228.612zM28.446 9.518c.108.05.232.054.343.009.111-.045.2-.133.249-.247l.708-1.68c.065-.152.047-.329-.048-.464-.094-.134-.25-.206-.41-.189-.16.018-.298.123-.363.276l-.708 1.68c-.048.113-.051.241-.008.357.042.115.128.208.237.258zM27.37 12.052c.056.026.117.04.179.042.179 0 .34-.11.412-.28l.364-.854c.1-.236-.003-.512-.23-.616-.226-.104-.49.002-.591.238l-.363.854c-.049.113-.052.242-.009.357.043.116.128.209.237.259zM42.367 30.888c-.602-.275-1.304.009-1.57.634-.164.384-.13.828.09 1.18s.596.565 1 .565c.567.005 1.059-.407 1.176-.984.118-.577-.172-1.16-.692-1.395h-.004zm-.198 1.264c-.03.075-.088.133-.16.163-.073.03-.154.028-.225-.004-.15-.07-.219-.254-.153-.411.032-.075.092-.134.166-.163.072-.031.153-.031.224 0 .073.034.13.097.157.175.028.078.025.165-.009.24zM40.375 30.794l-.82-.378c-.227-.104-.492.002-.592.238-.1.236.002.512.228.616l.821.378c.227.104.492-.002.592-.238.1-.236-.002-.511-.229-.616zM35.976 29.81l1.605.742c.147.067.317.048.446-.05.13-.099.2-.261.182-.427-.017-.166-.118-.31-.264-.377l-1.606-.742c-.227-.104-.492.002-.592.238-.1.236.002.511.229.616zM34.733 28.219l-.82-.378c-.147-.068-.317-.049-.447.05-.13.098-.198.26-.181.427.017.165.118.31.264.377l.821.378c.147.067.317.048.446-.05.13-.099.2-.261.182-.427-.017-.166-.118-.31-.265-.377zM2.514 15.458c.29.133.617.14.912.022.294-.12.531-.356.658-.657.264-.627-.009-1.359-.61-1.637-.29-.134-.618-.142-.914-.023-.295.12-.533.356-.66.657-.264.629.01 1.361.614 1.638zm.21-1.26c.033-.076.093-.135.167-.163.072-.031.152-.031.224 0 .073.032.13.094.16.172.028.077.026.163-.007.238-.032.076-.092.134-.166.164-.072.031-.153.031-.225 0-.072-.034-.128-.096-.156-.173-.028-.078-.025-.163.008-.238h-.004zM4.496 15.532l.821.378c.227.105.492-.002.592-.238.1-.235-.002-.511-.229-.615l-.82-.378c-.227-.105-.492.002-.592.238-.1.235.002.511.228.615zM9.138 17.151c.049-.113.052-.241.009-.357-.043-.115-.129-.208-.237-.258l-1.606-.742c-.227-.105-.492.002-.592.238-.1.235.002.511.229.616l1.592.741c.109.05.232.054.343.01.111-.046.2-.134.249-.248h.013zM10.152 18.131l.82.378c.147.068.317.049.447-.05.13-.098.199-.26.181-.427-.017-.165-.118-.31-.264-.377l-.82-.392c-.228-.104-.493.003-.593.238-.1.236.002.512.229.616v.014z" transform="translate(0 .5)"/>
    </g>
</svg>
