<svg xmlns="http://www.w3.org/2000/svg" width="21" height="13" viewBox="0 0 21 13">
    <path fill="#01AEEF" d="M8.02 1.308L6.256 6.874l-.542-1.187H2.795c-.267-.51-.759-.826-1.295-.826C.67 4.86 0 5.6 0 6.513c0 .913.67 1.652 1.5 1.652.536 0 1.031-.316 1.298-.826h1.99l.633 1.398c.228.503.82.726 1.323.498.258-.117.455-.338.54-.607L8.93 3.457l2.13 8.217c.138.535.683.856 1.218.717.331-.085.595-.334.7-.66l1.796-5.55.504 1.158h2.924c.27.51.762.826 1.298.826.83 0 1.5-.739 1.5-1.652 0-.913-.67-1.652-1.5-1.652-.536 0-1.031.316-1.298.826h-1.98l-.597-1.373c-.22-.506-.81-.738-1.316-.518-.264.115-.465.336-.553.61l-1.677 5.189-2.137-8.236C9.803.825 9.257.504 8.722.642c-.332.087-.597.338-.701.666z"/>
</svg>
