<svg xmlns="http://www.w3.org/2000/svg" width="18" height="17" viewBox="0 0 18 17">
    <path fill="#01AEEF" d="M1 0C.446 0 0 .448 0 1s.447 1 1 1c.551 0 .998-.448.998-1S1.551 0 1 0zm3.922 0c-.334-.005-.645.184-.813.496-.169.311-.169.697 0 1.008.168.312.48.501.813.496h11.12c.335.005.646-.184.814-.496.169-.311.169-.697 0-1.008-.168-.312-.48-.501-.813-.496H4.923zM1 5C.447 5 0 5.448 0 6s.447 1 1 1c.551 0 .998-.448.998-1S1.551 5 1 5zM4.85 5c-.308-.005-.595.184-.75.496-.156.311-.156.697 0 1.008.155.312.442.501.75.496h10.265c.309.005.595-.184.751-.496.155-.311.155-.697 0-1.008-.156-.312-.442-.501-.751-.496H4.85zM1 10c-.553 0-1 .448-1 1s.447 1 1 1c.551 0 .998-.448.998-1S1.551 10 1 10zm3.996 0c-.36-.005-.695.184-.877.496-.182.311-.182.697 0 1.008.182.312.517.501.877.496h11.99c.36.005.696-.184.878-.496.181-.311.181-.697 0-1.008-.182-.312-.517-.501-.877-.496H4.996zM.999 15C.447 15 0 15.448 0 16s.447 1 1 1c.551 0 .998-.448.998-1S1.551 15 1 15zm3.851 0c-.308-.005-.595.184-.75.496-.156.311-.156.697 0 1.008.155.312.442.501.75.496h10.265c.309.005.595-.184.751-.496.155-.311.155-.697 0-1.008-.156-.312-.442-.501-.751-.496H4.85z"/>
</svg>
