<svg xmlns="http://www.w3.org/2000/svg" width="21" height="21" viewBox="0 0 21 21">
    <path fill="#01AEEF" d="M14.118 0C12.948 0 12 .94 12 2.1c0 1.161.948 2.102 2.118 2.102s2.117-.941 2.117-2.101C16.235.94 15.287 0 14.118 0zM7.919 3.155c-.159.013-.314.051-.459.113L3.684 4.887c-.62.266-.863.9-.543 1.415v.002c.32.516 1.083.718 1.704.452L8.169 5.33l1.538.377-2.277 3.75c-.22.319-.337.68-.338 1.047.001.635.348 1.235.943 1.633l3.924 3.038-1.953 4.41c-.243.543.09 1.147.746 1.35.655.2 1.383-.076 1.625-.62l2.264-5.08c.135-.304.095-.642-.11-.917l-2.423-3.252 1.669-2.772 1.437 1.753c.237.286.627.457 1.045.457h3.477c.698 0 1.264-.47 1.264-1.05 0-.58-.566-1.05-1.264-1.05h-2.81l-2.589-3.156-.007-.004c-.35-.498-.932-.854-1.608-.985l-.004-.004-4.32-1.06c-.156-.04-.32-.052-.479-.04zm-.588 9.593l-.968.907H1.304c-.72 0-1.304.47-1.304 1.05 0 .58.584 1.051 1.304 1.051H6.93c.361 0 .706-.121.953-.332l1.313-1.346-1.864-1.33z"/>
</svg>
